<svg width="41" height="41" viewBox="0 0 41 41" fill="none" xmlns="http://www.w3.org/2000/svg">
<g clip-path="url(#clip0_815_2627)">
<path d="M2.45801 1.70825L9.15503 1.84456L13.1857 24.3542C13.3231 25.1281 13.7284 25.8291 14.3305 26.3343C14.9327 26.8396 15.6933 27.1169 16.4794 27.1179L32.7531 27.4491C33.5386 27.4802 34.3099 27.234 34.9321 26.7536C35.5543 26.2733 35.9877 25.5894 36.1565 24.8217L39.1212 10.8292L10.6589 10.2499M16.8447 35.5001C16.8259 36.4247 16.0611 37.1591 15.1364 37.1402C14.2117 37.1214 13.4774 36.3566 13.4962 35.4319C13.5151 34.5072 14.2799 33.7729 15.2046 33.7917C16.1292 33.8105 16.8636 34.5754 16.8447 35.5001ZM35.2616 35.8749C35.2427 36.7996 34.4779 37.5339 33.5532 37.5151C32.6286 37.4963 31.8942 36.7314 31.913 35.8068C31.9319 34.8821 32.6967 34.1478 33.6214 34.1666C34.546 34.1854 35.2804 34.9502 35.2616 35.8749Z" stroke="#FFDD00" stroke-width="4" stroke-linecap="round" stroke-linejoin="round"/>
</g>
<defs>
<clipPath id="clip0_815_2627">
<rect width="40.1904" height="40.1904" fill="white" transform="translate(0.817872) rotate(1.16604)"/>
</clipPath>
</defs>
</svg>
