<svg width="22" height="27" viewBox="0 0 22 27" fill="none" xmlns="http://www.w3.org/2000/svg">
<path d="M11.6218 26.8074C11.2453 27.0642 10.7547 27.0642 10.3782 26.8074L11 25.8531L11.6218 26.8074ZM19.758 11.2541C19.758 8.87766 18.8354 6.59843 17.193 4.91806C15.5505 3.23768 13.3228 2.29382 11 2.29382C8.67724 2.29382 6.44946 3.23768 4.80703 4.91806C3.16459 6.59843 2.24204 8.87766 2.24204 11.2541C2.24204 14.7236 4.44931 18.0937 6.87445 20.7127C8.0641 21.9975 9.25756 23.0495 10.1549 23.7805C10.4817 24.0468 10.769 24.2681 11 24.443C11.231 24.2681 11.5183 24.0468 11.8451 23.7805C12.7424 23.0495 13.9359 21.9975 15.1255 20.7127C17.5507 18.0937 19.758 14.7236 19.758 11.2541ZM13.172 11.2541C13.172 10.0268 12.1995 9.03193 11 9.03193C9.80045 9.03193 8.82803 10.0268 8.82803 11.2541C8.82803 12.4813 9.80045 13.4762 11 13.4762C12.1995 13.4762 13.172 12.4813 13.172 11.2541ZM15.414 11.2541C15.414 13.7482 13.4378 15.77 11 15.77C8.56221 15.77 6.58599 13.7482 6.58599 11.2541C6.58599 8.75997 8.56221 6.73811 11 6.73811C13.4378 6.73811 15.414 8.75997 15.414 11.2541ZM22 11.2541C22 15.6456 19.2677 19.575 16.7534 22.2903C15.4734 23.6727 14.197 24.7967 13.242 25.5748C12.7638 25.9644 12.3637 26.2693 12.0811 26.4781C11.9398 26.5825 11.8274 26.663 11.7494 26.7183C11.7103 26.746 11.6794 26.7678 11.6579 26.7827C11.6474 26.7901 11.6388 26.7959 11.6328 26.8001C11.6298 26.8021 11.6275 26.8039 11.6256 26.8051C11.6247 26.8058 11.6241 26.8064 11.6235 26.8068L11.6224 26.8074C11.6218 26.8072 11.6098 26.7889 11 25.8531C10.3902 26.7889 10.3782 26.8072 10.3776 26.8074L10.3765 26.8068C10.3759 26.8064 10.3753 26.8058 10.3744 26.8051C10.3725 26.8039 10.3702 26.8021 10.3672 26.8001C10.3612 26.7959 10.3526 26.7901 10.3421 26.7827C10.3206 26.7678 10.2897 26.746 10.2506 26.7183C10.1726 26.663 10.0602 26.5825 9.91894 26.4781C9.63632 26.2693 9.23624 25.9644 8.75796 25.5748C7.80296 24.7967 6.52661 23.6727 5.24657 22.2903C2.73225 19.575 0 15.6456 0 11.2541C3.22181e-07 8.2693 1.15894 5.4068 3.22184 3.29625C5.28474 1.1857 8.08262 0 11 0C13.9174 0 16.7153 1.1857 18.7782 3.29625C20.8411 5.4068 22 8.2693 22 11.2541Z" fill="#FFDD00"/>
</svg>
