<svg width="18" height="18" viewBox="0 0 18 18" fill="none" xmlns="http://www.w3.org/2000/svg">
<path d="M7.75741 0.00364243C8.09268 -0.0273412 8.41513 0.141306 8.5805 0.434587C8.74582 0.727919 8.72343 1.09117 8.52335 1.36197C7.79354 2.34932 7.4421 3.56596 7.53338 4.79034C7.62469 6.01469 8.15252 7.16572 9.02062 8.0339C9.88883 8.90211 11.0402 9.42983 12.2646 9.52114C13.4889 9.6124 14.7053 9.26133 15.6926 8.5316C15.9634 8.33143 16.3266 8.30914 16.6199 8.47444C16.9133 8.63976 17.0822 8.96184 17.0513 9.29712C16.902 10.913 16.2955 12.4533 15.3029 13.7371C14.3103 15.0209 12.9727 15.9955 11.4465 16.5468C9.92024 17.0981 8.26832 17.2033 6.68443 16.8501C5.10051 16.497 3.64971 15.6998 2.50221 14.5523C1.35482 13.4049 0.557974 11.9543 0.204811 10.3705C-0.148364 8.78661 -0.0432082 7.13472 0.508099 5.60843C1.0594 4.08221 2.03403 2.74462 3.3178 1.75204C4.60158 0.759461 6.14155 0.153004 7.75741 0.00364243ZM6.21802 2.08453C5.55389 2.32488 4.92757 2.66741 4.36324 3.10369C3.33618 3.89778 2.55612 4.96811 2.11507 6.18914C1.67409 7.41008 1.5902 8.73137 1.87269 9.99839C2.15523 11.2655 2.79278 12.4262 3.71078 13.3442C4.62874 14.2621 5.78907 14.8997 7.05613 15.1822C8.32326 15.4648 9.64477 15.3805 10.8658 14.9395C12.0868 14.4984 13.1572 13.7188 13.9513 12.6917C14.3876 12.1273 14.7297 11.5007 14.97 10.8365C14.0705 11.1618 13.1059 11.2975 12.1374 11.2253C10.5048 11.1036 8.97008 10.4 7.81248 9.24247C6.65489 8.08488 5.95139 6.55012 5.82963 4.91758C5.7574 3.94902 5.89269 2.98408 6.21802 2.08453Z" fill="#1E1E1E"/>
</svg>
