<svg width="20" height="20" viewBox="0 0 20 20" fill="none" xmlns="http://www.w3.org/2000/svg">
<path fill-rule="evenodd" clip-rule="evenodd" d="M12.499 2.11844e-05C12.7138 -0.00175971 12.9141 0.10885 13.027 0.291618C13.1398 0.474499 13.1489 0.703366 13.051 0.894611C12.731 1.5192 12.3908 2.23789 12.1474 2.84159C12.0759 3.01881 12.0149 3.18155 11.9656 3.32578C11.9702 3.32595 11.9748 3.32621 11.9794 3.32638L12.1702 3.33658C16.2648 3.60505 19.7604 7.37444 19.9779 11.7551L19.9857 11.9591C20.0951 16.1707 17.0861 19.3626 13.1488 19.2112L12.9568 19.201C12.4181 19.1657 11.8904 19.0683 11.3788 18.9178C10.9446 19.111 10.4869 19.2166 10.0126 19.2166L9.88539 19.2136C9.45123 19.1966 9.03191 19.0909 8.6326 18.9112C8.11399 19.0657 7.57847 19.1651 7.03182 19.201L6.83982 19.2112C2.90253 19.3625 -0.106579 16.1707 0.00289414 11.9591L0.0106941 11.7551C0.228151 7.37447 3.72383 3.60509 7.81841 3.33658L8.00921 3.32638C8.0823 3.32357 8.15516 3.32271 8.2276 3.32218C8.32339 2.79195 8.52161 2.1598 8.9374 1.5852C9.58979 0.683692 10.7068 0.0156558 12.499 2.11844e-05ZM10.0126 5.17556C9.20648 5.17565 8.3096 5.68279 7.55501 6.85015C6.80842 8.00522 6.30644 9.6748 6.30643 11.5817C6.30645 13.4886 6.80841 15.1582 7.55501 16.3132C8.3096 17.4806 9.20649 17.9877 10.0126 17.9878C10.8187 17.9878 11.7155 17.4806 12.4702 16.3132C13.2168 15.1582 13.7193 13.4886 13.7193 11.5817C13.7193 9.67473 13.2168 8.00522 12.4702 6.85015C11.7155 5.68274 10.8187 5.17556 10.0126 5.17556ZM7.75781 4.56417C4.41602 4.78327 1.4242 7.89355 1.23648 11.6747C1.04902 15.4558 3.75062 18.1924 7.09242 17.9734C7.16059 17.969 7.22861 17.9627 7.29641 17.9554C6.02619 16.6571 5.16621 14.4748 5.08424 11.9747L5.07764 11.5817C5.07766 8.43659 6.30738 5.73615 8.06321 4.56657L7.87061 4.57977C7.8802 4.57261 7.88978 4.56528 7.89941 4.55817C7.8524 4.56009 7.80508 4.56108 7.75781 4.56417ZM12.1156 4.57917L11.965 4.56897C13.7193 5.73961 14.9481 8.43836 14.9481 11.5817L14.9415 11.9747C14.8595 14.4764 13.998 16.6596 12.7264 17.9578C12.7829 17.9634 12.8394 17.9697 12.8962 17.9734C16.238 18.1924 18.939 15.4559 18.7515 11.6747C18.5638 7.89352 15.5726 4.78321 12.2308 4.56417C12.1833 4.56107 12.1358 4.56009 12.0886 4.55817C12.0977 4.56489 12.1065 4.5724 12.1156 4.57917ZM11.4616 1.34641C10.679 1.53152 10.2184 1.91113 9.93279 2.3058C9.67826 2.65762 9.53729 3.05741 9.45939 3.42658C9.64057 3.45918 9.81899 3.49819 9.99399 3.54538C10.2121 3.48654 10.4354 3.43982 10.663 3.40378C10.6726 3.36304 10.6819 3.32196 10.693 3.28139C10.7653 3.01628 10.8777 2.7051 11.008 2.382C11.1401 2.05431 11.2965 1.6999 11.4616 1.34641Z" fill="black"/>
</svg>
