<svg width="17" height="19" viewBox="0 0 17 19" fill="none" xmlns="http://www.w3.org/2000/svg">
<path d="M8.34958 0.00191487C8.55456 -0.0129758 8.61768 0.0582776 8.69412 0.240271C9.38466 2.09303 10.9158 3.88573 13.0001 4.57968C13.1277 4.62252 13.2239 4.73017 13.2518 4.86185C13.2795 4.99345 13.2352 5.13049 13.136 5.22124C12.8995 5.43674 12.4782 5.70433 11.9643 5.93037C11.5935 6.09339 11.1603 6.23903 10.6953 6.3306C10.9968 6.82352 11.4499 7.4455 12.0311 8.03176C12.8188 8.82611 13.8164 9.53146 14.9597 9.79307C15.1084 9.82754 15.223 9.94784 15.2493 10.0983C15.2753 10.2487 15.2084 10.401 15.08 10.4836C14.7396 10.7021 14.3126 11.0065 13.6996 11.2447C13.247 11.4205 12.6982 11.5572 11.9999 11.619C12.2991 11.8937 12.7022 12.2179 13.1924 12.5464C14.0753 13.138 15.2002 13.7243 16.4128 14.0679C16.5692 14.1126 16.6802 14.2522 16.6883 14.4146C16.6962 14.5773 16.5992 14.7276 16.4477 14.7874C15.7646 15.0561 14.4811 15.4342 13.0105 15.7237C11.9396 15.9346 10.7537 16.1 9.61561 16.1418V17.7368C9.61561 17.9466 9.44523 18.1168 9.23543 18.117H7.14666C6.93669 18.117 6.76648 17.9467 6.76648 17.7368V16.1269C5.72364 16.0689 4.65336 15.9157 3.67825 15.7237C2.20805 15.4343 0.924501 15.0568 0.241026 14.7881C0.0893683 14.7285 -0.00738804 14.5781 0.000442335 14.4154C0.00850266 14.2526 0.119101 14.1124 0.275925 14.0679C1.48856 13.7242 2.61353 13.1388 3.49633 12.5472C3.98657 12.2186 4.38965 11.8944 4.68885 11.6197C3.99053 11.558 3.4418 11.4205 2.98917 11.2447C2.37623 11.0067 1.94914 10.7022 1.60879 10.4836C1.48018 10.401 1.41331 10.2489 1.43949 10.0983C1.46591 9.94773 1.58013 9.82727 1.72908 9.79307C2.87237 9.53131 3.87001 8.8269 4.65766 8.0325C5.23894 7.44619 5.69199 6.82428 5.9935 6.33134C5.5286 6.23985 5.09525 6.09407 4.72449 5.93111C4.21073 5.7052 3.78946 5.43747 3.55276 5.22198C3.45317 5.13117 3.40909 4.99372 3.43692 4.86185C3.46495 4.73011 3.5609 4.6231 3.68865 4.58043C5.77257 3.88639 7.33379 2.0591 8.02435 0.206114C8.09472 0.0379801 8.17318 0.00284501 8.34958 0.00191487ZM8.31914 16.1344C8.0606 16.1495 7.79553 16.1553 7.52684 16.1537V17.3566H8.85525V16.1507C8.69137 16.1479 8.52932 16.1429 8.36963 16.1336C8.36178 16.1332 8.35357 16.1302 8.34587 16.1292C8.33707 16.1303 8.32812 16.1338 8.31914 16.1344ZM8.34958 1.34294C7.57749 2.85049 6.28888 4.25947 4.61682 5.02892C4.74027 5.09671 4.87867 5.16787 5.03042 5.23461C5.49111 5.4371 6.04843 5.60739 6.62688 5.65563C6.75223 5.66631 6.86516 5.7383 6.92687 5.84794C6.98832 5.95771 6.99193 6.09179 6.93578 6.20436C6.64315 6.78957 6.04395 7.71411 5.19749 8.56787C4.53045 9.24063 3.6922 9.88409 2.71369 10.2765C2.87801 10.3676 3.05826 10.4562 3.26466 10.5364C3.7842 10.738 4.48664 10.8957 5.5205 10.8957C5.66094 10.896 5.79029 10.9736 5.85613 11.0977C5.92164 11.2218 5.91398 11.3728 5.83533 11.489C5.54491 11.917 4.84093 12.5608 3.91958 13.1783C3.25107 13.6264 2.44575 14.0729 1.56275 14.4273C2.18922 14.6115 2.9718 14.8095 3.82527 14.9775C5.26567 15.261 6.88246 15.4561 8.27533 15.3748C8.29843 15.3735 8.32145 15.3742 8.34364 15.377C8.36618 15.3742 8.38995 15.3734 8.41344 15.3748C9.80638 15.456 11.4232 15.2611 12.8635 14.9775C13.7171 14.8094 14.4995 14.6108 15.126 14.4265C14.2432 14.0722 13.4376 13.6262 12.7692 13.1783C11.848 12.5609 11.1441 11.917 10.8534 11.489C10.7744 11.3726 10.7668 11.2213 10.8326 11.097C10.8986 10.9729 11.0277 10.895 11.1683 10.895C12.2023 10.8949 12.9046 10.7374 13.4241 10.5356C13.6306 10.4554 13.8107 10.3669 13.9751 10.2757C12.9966 9.88344 12.1583 9.23981 11.4913 8.56713C10.645 7.71359 10.0457 6.7896 9.75298 6.20436C9.69659 6.09159 9.70018 5.95789 9.76189 5.84794C9.82372 5.73807 9.93623 5.66535 10.0619 5.65488C10.6404 5.60655 11.1977 5.43715 11.6583 5.23461C11.8101 5.16787 11.9478 5.09595 12.0712 5.02818C10.392 4.25787 9.11421 2.85608 8.34958 1.34294Z" fill="black"/>
</svg>
