<svg width="390" height="657" viewBox="0 0 390 657" fill="none" xmlns="http://www.w3.org/2000/svg">
<path d="M389.239 656.632H0V0H389.239V656.632ZM8.11133 647.55H32.2148V626.423H8.11133V647.55ZM46.8789 647.55H70.9834V626.423H46.8789V647.55ZM85.6475 647.55H109.752V626.423H85.6475V647.55ZM124.415 647.55H148.52V626.423H124.415V647.55ZM163.184 647.55H187.288V626.423H163.184V647.55ZM201.951 647.55H226.056V626.423H201.951V647.55ZM240.72 647.55H264.824V626.423H240.72V647.55ZM279.487 647.55H303.592V626.423H279.487V647.55ZM318.256 647.55H342.36V626.423H318.256V647.55ZM357.024 626.423V647.55H381.129V626.423H357.024ZM60.0684 71.7812C56.2026 71.7815 53.0684 74.9154 53.0684 78.7812V506.866C53.0687 510.732 56.2028 513.866 60.0684 513.866H329.38C333.245 513.866 336.38 510.732 336.38 506.866V78.7812C336.38 74.9156 333.245 71.7818 329.38 71.7812H60.0684ZM8.11035 30.21H32.2148V9.08301H8.11035V30.21ZM46.8789 30.21H70.9834V9.08301H46.8789V30.21ZM85.6475 30.21H109.751V9.08301H85.6475V30.21ZM124.415 30.21H148.52V9.08301H124.415V30.21ZM163.184 30.21H187.287V9.08301H163.184V30.21ZM201.951 30.21H226.056V9.08301H201.951V30.21ZM240.72 30.21H264.823V9.08301H240.72V30.21ZM279.487 30.21H303.592V9.08301H279.487V30.21ZM318.256 30.21H342.359V9.08301H318.256V30.21ZM357.024 30.21H381.128V9.08301H357.024V30.21Z" fill="black"/>
</svg>
