<svg width="1941" height="61" viewBox="0 0 1941 61" fill="none" xmlns="http://www.w3.org/2000/svg">
<path fill-rule="evenodd" clip-rule="evenodd" d="M1940.83 60.8623H0V0H1940.83V60.8623ZM97.3389 9.04785H97.3271V29.7295H121.306V29.7129H121.385V9.00391H97.3389V9.04785ZM136.822 29.7295H160.801V9.04785H136.822V29.7295ZM176.317 29.7295H200.296V9.04785H176.317V29.7295ZM215.812 29.7295H239.791V9.04785H215.812V29.7295ZM255.307 29.7295H279.286V9.04785H255.307V29.7295ZM294.802 29.7295H318.781V9.04785H294.802V29.7295ZM334.297 29.7295H358.276V9.04785H334.297V29.7295ZM373.792 29.7295H397.771V9.04785H373.792V29.7295ZM413.287 29.7295H437.266V9.04785H413.287V29.7295ZM452.782 29.7295H476.761V9.04785H452.782V29.7295ZM492.277 29.7295H516.256V9.04785H492.277V29.7295ZM531.771 29.7295H555.751V9.04785H531.771V29.7295ZM571.267 29.7295H595.246V9.04785H571.267V29.7295ZM610.762 29.7295H634.741V9.04785H610.762V29.7295ZM650.257 29.7295H674.236V9.04785H650.257V29.7295ZM689.752 29.7295H713.73V9.04785H689.752V29.7295ZM729.247 29.7295H753.226V9.04785H729.247V29.7295ZM768.743 29.7295H792.723V9.04785H768.743V29.7295ZM808.238 29.7295H832.217V9.04785H808.238V29.7295ZM847.733 29.7295H871.712V9.04785H847.733V29.7295ZM887.229 29.7295H911.207V9.04785H887.229V29.7295ZM926.723 29.7295H950.702V9.04785H926.723V29.7295ZM966.218 29.7295H990.197V9.04785H966.218V29.7295ZM1005.71 29.7295H1029.69V9.04785H1005.71V29.7295ZM1045.21 29.7295H1069.19V9.04785H1045.21V29.7295ZM1084.7 29.7295H1108.68V9.04785H1084.7V29.7295ZM1124.2 29.7295H1148.18V9.04785H1124.2V29.7295ZM1163.69 29.7295H1187.67V9.04785H1163.69V29.7295ZM1203.19 29.7295H1227.17V9.04785H1203.19V29.7295ZM1242.68 29.7295H1266.66V9.04785H1242.68V29.7295ZM1282.18 29.7295H1306.16V9.04785H1282.18V29.7295ZM1321.67 29.7295H1345.65V9.04785H1321.67V29.7295ZM1361.17 29.7295H1385.15V9.04785H1361.17V29.7295ZM1400.66 29.7295H1424.64V9.04785H1400.66V29.7295ZM1440.16 9.04785H1440.16V29.7295H1464.14V29.6143H1464.17V8.99023H1440.16V9.04785ZM1479.84 9.04785H1479.65V29.7295H1503.63V29.6143H1503.84V8.99023H1479.84V9.04785ZM18.0957 29.7129H42.1416V9.00391H18.0957V29.7129ZM57.7178 29.7129H81.7627V9.00391H57.7178V29.7129ZM1519.52 29.6143H1543.52V8.99023H1519.52V29.6143ZM1559.19 29.6143H1583.2V8.99023H1559.19V29.6143ZM1598.87 29.6143H1622.87V8.99023H1598.87V29.6143ZM1638.54 29.6143H1662.55V8.99023H1638.54V29.6143ZM1678.22 29.6143H1702.23V8.99023H1678.22V29.6143ZM1717.9 29.6143H1741.9V8.99023H1717.9V29.6143ZM1757.57 29.6143H1781.58V8.99023H1757.57V29.6143ZM1797.25 29.6143H1821.25V8.99023H1797.25V29.6143ZM1836.93 29.6143H1860.93V8.99023H1836.93V29.6143ZM1876.6 29.6143H1900.61V8.99023H1876.6V29.6143ZM1916.28 29.6143H1940.28V8.99023H1916.28V29.6143Z" fill="black"/>
</svg>
