<svg width="1940" height="657" viewBox="0 0 1940 657" fill="none" xmlns="http://www.w3.org/2000/svg">
<path d="M1942.3 656.631H1.46973V0H1942.3L1942.3 656.631ZM19.5654 646.319H43.6113V625.61H19.5654V646.319ZM59.1875 646.319H83.2324V625.61H59.1875V646.319ZM98.7969 646.29H98.8086V646.319H122.854V625.61L98.7969 625.609V646.29ZM138.292 646.29H162.271V625.609H138.292V646.29ZM177.787 646.29H201.766V625.609H177.787V646.29ZM217.281 646.29H241.261V625.609H217.281V646.29ZM256.776 646.29H280.756V625.609H256.776V646.29ZM296.271 646.29H320.251V625.609H296.271V646.29ZM335.767 646.29H359.746V625.609H335.767V646.29ZM375.262 646.29H399.24V625.609H375.262V646.29ZM414.757 646.29H438.735V625.609H414.757V646.29ZM454.252 646.29H478.23V625.609H454.252V646.29ZM493.747 646.29H517.726V625.609H493.747V646.29ZM533.241 646.29H557.221V625.609H533.241V646.29ZM572.736 646.29H596.716V625.609H572.736V646.29ZM612.231 646.29H636.211V625.609H612.231V646.29ZM651.727 646.29H675.706V625.609H651.727V646.29ZM691.222 646.29H715.2V625.609H691.222V646.29ZM730.717 646.29H754.695V625.609H730.717V646.29ZM770.213 646.29H794.192V625.609H770.213V646.29ZM809.709 646.29H833.688V625.609H809.709V646.29ZM849.204 646.29H873.184V625.609H849.204V646.29ZM888.699 646.29H912.679V625.609H888.699V646.29ZM928.194 646.29H952.173V625.609H928.194V646.29ZM967.689 646.29H991.668V625.609H967.689V646.29ZM1007.18 646.29H1031.16V625.609H1007.18V646.29ZM1046.68 646.29H1070.66V625.609H1046.68V646.29ZM1086.17 646.29H1110.15V625.609H1086.17V646.29ZM1125.67 646.29H1149.65V625.609H1125.67V646.29ZM1165.16 646.29H1189.14V625.609H1165.16V646.29ZM1204.66 646.29H1228.64V625.609H1204.66V646.29ZM1244.15 646.29H1268.13V625.609H1244.15V646.29ZM1283.65 646.29H1307.63V625.609H1283.65V646.29ZM1323.14 646.29H1347.12V625.609H1323.14V646.29ZM1362.64 646.29H1386.62V625.609H1362.64V646.29ZM1402.13 646.29H1426.11V625.609H1402.13V646.29ZM1441.63 646.29H1465.61V646.234H1465.64V625.61H1465.61V625.609H1441.63V646.29ZM1481.12 646.29H1505.1V646.234H1505.31V625.61H1505.1V625.609H1481.12V646.29ZM1520.99 646.234H1544.99V625.61H1520.99V646.234ZM1560.66 646.234H1584.67V625.61H1560.66V646.234ZM1600.34 646.234H1624.34V625.61H1600.34V646.234ZM1640.01 646.234H1664.02V625.61H1640.01V646.234ZM1679.69 646.234H1703.7V625.61H1679.69V646.234ZM1719.37 646.234H1743.37V625.61H1719.37V646.234ZM1759.04 646.234H1783.05V625.61H1759.04V646.234ZM1798.72 646.234H1822.72V625.61H1798.72V646.234ZM1838.4 646.234H1862.4V625.61H1838.4V646.234ZM1878.07 646.234H1902.08V625.61H1878.07V646.234ZM1917.75 625.61V646.234H1941.75V625.61H1917.75ZM65.3389 71.7803C61.4729 71.7803 58.3389 74.9143 58.3389 78.7803V506.865C58.3389 510.731 61.4729 513.865 65.3389 513.865H334.649C338.515 513.865 341.649 510.731 341.649 506.865V78.7803C341.649 74.9144 338.515 71.7805 334.649 71.7803H65.3389ZM448.755 71.7803C444.337 71.7803 440.755 75.362 440.755 79.7803V505.865C440.755 510.283 444.337 513.865 448.755 513.865H716.065C720.483 513.865 724.065 510.283 724.065 505.865V79.7803C724.065 75.3622 720.483 71.7805 716.065 71.7803H448.755ZM831.171 71.7803C826.753 71.7803 823.171 75.362 823.171 79.7803V505.865C823.171 510.283 826.753 513.865 831.171 513.865H1098.48C1102.9 513.865 1106.48 510.283 1106.48 505.865V79.7803C1106.48 75.3622 1102.9 71.7806 1098.48 71.7803H831.171ZM1213.59 71.7803C1209.17 71.7803 1205.59 75.362 1205.59 79.7803V505.865C1205.59 510.283 1209.17 513.865 1213.59 513.865H1480.9C1485.32 513.865 1488.9 510.283 1488.9 505.865V79.7803C1488.9 75.3622 1485.32 71.7807 1480.9 71.7803H1213.59ZM1596 71.7803C1591.58 71.7804 1588 75.3621 1588 79.7803V505.865C1588 510.283 1591.58 513.865 1596 513.865H1863.31C1867.73 513.865 1871.31 510.283 1871.31 505.865V79.7803C1871.31 75.3623 1867.73 71.7808 1863.31 71.7803H1596ZM98.8086 9.04785H98.7969V29.7295H122.775V29.7129H122.854V9.00391H98.8086V9.04785ZM138.292 29.7295H162.271V9.04785H138.292V29.7295ZM177.787 29.7295H201.766V9.04785H177.787V29.7295ZM217.281 29.7295H241.261V9.04785H217.281V29.7295ZM256.776 29.7295H280.756V9.04785H256.776V29.7295ZM296.271 29.7295H320.251V9.04785H296.271V29.7295ZM335.767 29.7295H359.746V9.04785H335.767V29.7295ZM375.262 29.7295H399.24V9.04785H375.262V29.7295ZM414.757 29.7295H438.735V9.04785H414.757V29.7295ZM454.252 29.7295H478.23V9.04785H454.252V29.7295ZM493.747 29.7295H517.726V9.04785H493.747V29.7295ZM533.241 29.7295H557.221V9.04785H533.241V29.7295ZM572.736 29.7295H596.716V9.04785H572.736V29.7295ZM612.231 29.7295H636.211V9.04785H612.231V29.7295ZM651.727 29.7295H675.706V9.04785H651.727V29.7295ZM691.222 29.7295H715.2V9.04785H691.222V29.7295ZM730.717 29.7295H754.695V9.04785H730.717V29.7295ZM770.213 29.7295H794.192V9.04785H770.213V29.7295ZM809.708 29.7295H833.687V9.04785H809.708V29.7295ZM849.203 29.7295H873.182V9.04785H849.203V29.7295ZM888.698 29.7295H912.677V9.04785H888.698V29.7295ZM928.192 29.7295H952.172V9.04785H928.192V29.7295ZM967.688 29.7295H991.667V9.04785H967.688V29.7295ZM1007.18 29.7295H1031.16V9.04785H1007.18V29.7295ZM1046.68 29.7295H1070.66V9.04785H1046.68V29.7295ZM1086.17 29.7295H1110.15V9.04785H1086.17V29.7295ZM1125.67 29.7295H1149.65V9.04785H1125.67V29.7295ZM1165.16 29.7295H1189.14V9.04785H1165.16V29.7295ZM1204.66 29.7295H1228.64V9.04785H1204.66V29.7295ZM1244.15 29.7295H1268.13V9.04785H1244.15V29.7295ZM1283.65 29.7295H1307.63V9.04785H1283.65V29.7295ZM1323.14 29.7295H1347.12V9.04785H1323.14V29.7295ZM1362.64 29.7295H1386.62V9.04785H1362.64V29.7295ZM1402.13 29.7295H1426.11V9.04785H1402.13V29.7295ZM1441.63 9.04785H1441.63V29.7295H1465.61V29.6143H1465.64V8.99023H1441.63V9.04785ZM1481.31 9.04785H1481.12V29.7295H1505.1V29.6143H1505.31V8.99023H1481.31V9.04785ZM19.5654 29.7129H43.6113V9.00391H19.5654V29.7129ZM59.1875 29.7129H83.2324V9.00391H59.1875V29.7129ZM1520.99 29.6143H1544.99V8.99023H1520.99V29.6143ZM1560.66 29.6143H1584.67V8.99023H1560.66V29.6143ZM1600.34 29.6143H1624.34V8.99023H1600.34V29.6143ZM1640.01 29.6143H1664.02V8.99023H1640.01V29.6143ZM1679.69 29.6143H1703.7V8.99023H1679.69V29.6143ZM1719.37 29.6143H1743.37V8.99023H1719.37V29.6143ZM1759.04 29.6143H1783.05V8.99023H1759.04V29.6143ZM1798.72 29.6143H1822.72V8.99023H1798.72V29.6143ZM1838.4 29.6143H1862.4V8.99023H1838.4V29.6143ZM1878.07 29.6143H1902.08V8.99023H1878.07V29.6143ZM1917.75 29.6143H1941.75V8.99023H1917.75V29.6143Z" fill="black"/>
</svg>
