<svg width="264" height="446" viewBox="0 0 264 446" fill="none" xmlns="http://www.w3.org/2000/svg">
<g clip-path="url(#clip0_936_1692)">
<path fill-rule="evenodd" clip-rule="evenodd" d="M264.06 445.459H0V0H264.06V445.459ZM5.50272 439.297H21.8545V424.965H5.50272V439.297ZM31.8026 439.297H48.1551V424.965H31.8026V439.297ZM58.1032 439.297H74.4557V424.965H58.1032V439.297ZM84.4031 439.297H100.756V424.965H84.4031V439.297ZM110.704 439.297H127.056V424.965H110.704V439.297ZM137.004 439.297H153.356V424.965H137.004V439.297ZM163.304 439.297H179.657V424.965H163.304V439.297ZM189.604 439.297H205.957V424.965H189.604V439.297ZM215.905 439.297H232.257V424.965H215.905V439.297ZM242.205 424.965V439.297H258.558V424.965H242.205ZM31.802 38.9116C29.1794 38.9118 27.0532 41.0378 27.0532 43.6604L27.0538 347.928C27.054 350.551 29.1802 352.677 31.8026 352.677L232.348 352.677C234.971 352.676 237.097 350.55 237.097 347.928L237.096 43.6601C237.096 41.0376 234.97 38.9116 232.348 38.9113L31.802 38.9116ZM5.50206 20.4944H21.8545V6.16191H5.50206V20.4944ZM31.8026 20.4944H48.1551V6.16191H31.8026V20.4944ZM58.1032 20.4944H74.455V6.16191H58.1032V20.4944ZM84.4031 20.4944H100.756V6.16191H84.4031V20.4944ZM110.704 20.4944H127.055V6.16191H110.704V20.4944ZM137.004 20.4944H153.356V6.16191H137.004V20.4944ZM163.304 20.4944H179.656V6.16191H163.304V20.4944ZM189.604 20.4944H205.957V6.16191H189.604V20.4944ZM215.905 20.4944H232.256V6.16191H215.905V20.4944ZM242.205 20.4944H258.557V6.16191H242.205V20.4944Z" fill="black"/>
</g>
<defs>
<clipPath id="clip0_936_1692">
<rect width="263.897" height="445.708" fill="white"/>
</clipPath>
</defs>
</svg>
